<?xml version="1.0" encoding="utf-8"?>
<!-- Generator: Adobe Illustrator 23.1.0, SVG Export Plug-In . SVG Version: 6.00 Build 0)  -->
<svg version="1.1" xmlns="http://www.w3.org/2000/svg" xmlns:xlink="http://www.w3.org/1999/xlink" x="0px" y="0px" width="100px"
	 height="100px" viewBox="0 0 100 100" style="enable-background:new 0 0 100 100;" xml:space="preserve">
<style type="text/css">
	.st0{fill:#00AEEF;}
</style>
<g id="Layer_8">
</g>
<g id="Layer_6">
</g>
<g id="Layer_7">
</g>
<g id="Layer_2">
</g>
<g id="Layer_3">
</g>
<g id="Layer_4">
</g>
<g id="Layer_5">
	<g>
		<path class="st0" d="M80.147,41.31c0.5-0.445,0.869-0.782,1.248-1.107c1.688-1.452,3.638-2.292,5.864-2.441
			c0.81-0.054,1.357,0.364,1.438,0.983c0.069,0.526-0.194,0.836-0.626,1.056c-0.291,0.149-0.602,0.225-0.925,0.262
			c-3.959,0.463-6.996,3.839-7.011,7.824c-0.015,4.051,0.009,8.102-0.017,12.154c-0.004,0.601,0.195,0.737,0.76,0.732
			c2.077-0.02,2.195,0.117,2.195,2.176c0,0.584,0.016,1.169-0.003,1.753c-0.014,0.42,0.16,0.577,0.574,0.556
			c0.422-0.021,0.848-0.023,1.269,0.013c0.789,0.068,1.124,0.405,1.155,1.192c0.034,0.845,0.061,1.695,0.016,2.538
			c-0.034,0.635,0.236,0.829,0.809,0.792c0.24-0.015,0.485-0.009,0.724,0.017c0.554,0.06,0.954,0.333,1.066,0.903
			c0.095,0.485-0.268,1.006-0.801,1.213c-0.309,0.12-0.633,0.108-0.955,0.108c-24.65,0.001-49.3,0.001-73.95,0
			c-1.107,0-1.604-0.344-1.62-1.102c-0.017-0.777,0.5-1.14,1.637-1.141c2.519-0.001,5.039,0,7.558-0.001
			c0.812,0,0.814-0.003,0.814-0.782c0.001-5.482-0.011-10.965,0.016-16.447c0.003-0.605-0.214-0.783-0.757-0.888
			c-5.128-0.994-8.601-4.661-9.224-9.843c-0.172-1.432-0.083-2.898-0.085-4.348c-0.004-4.414-0.013-8.828,0.02-13.242
			c0.021-2.823,1.037-5.273,2.986-7.317c0.727-0.762,1.692-0.536,1.985,0.415c0.113,0.367,0.035,0.708-0.203,0.962
			c-2.192,2.344-2.58,5.201-2.526,8.257c0.083,4.695,0.031,9.392,0.038,14.088c0.006,4.155,2.803,7.697,6.838,8.659
			c1.018,0.243,1.021,0.243,1.018-0.767c-0.005-1.713-0.033-3.426-0.013-5.139c0.007-0.592-0.181-1.042-0.598-1.449
			c-1.095-1.071-2.17-2.162-3.253-3.246c-0.128-0.128-0.26-0.253-0.381-0.388c-0.57-0.632-0.615-1.218-0.135-1.711
			c0.501-0.516,1.127-0.501,1.758,0.108c0.695,0.672,1.346,1.389,2.026,2.076c0.131,0.133,0.244,0.397,0.472,0.294
			c0.216-0.098,0.122-0.361,0.122-0.552c0.005-4.716,0.004-9.433,0.004-14.149c0-0.222-0.009-0.444,0.009-0.665
			c0.052-0.651,0.476-1.05,1.098-1.049c0.668,0.001,1.075,0.395,1.109,1.091c0.108,2.195,0.056,4.392,0.073,6.588
			c0.002,0.292-0.139,0.727,0.135,0.842c0.325,0.137,0.503-0.305,0.718-0.514c0.651-0.631,1.25-1.316,1.919-1.926
			c0.662-0.604,1.416-0.46,1.821,0.283c0.305,0.56,0.083,1.012-0.314,1.412c-1.107,1.117-2.19,2.259-3.34,3.329
			c-0.706,0.657-0.974,1.376-0.964,2.343c0.045,4.172,0.019,8.344,0.02,12.516c0,0.81,0.044,0.843,0.822,0.675
			c3.728-0.801,6.727-4.265,6.786-8.123c0.088-5.722,0.114-11.449,0.005-17.17c-0.097-5.125-5.134-9.146-10.197-8.318
			c-0.361,0.059-0.72,0.101-1.082,0.062c-0.403-0.043-0.753-0.191-0.874-0.624c-0.128-0.458-0.077-0.88,0.322-1.205
			c0.224-0.182,0.478-0.287,0.76-0.347c6.847-1.464,13.376,3.811,13.389,10.829c0.008,4.172,0.001,8.344,0.002,12.516
			c0,0.731,0.013,0.77,0.734,0.599c1.638-0.388,3.274-0.415,4.91-0.048c0.485,0.109,0.724-0.034,0.933-0.478
			c0.9-1.911,2.315-3.24,4.436-3.668c3.297-0.665,6.001,0.691,7.449,3.748c0.236,0.498,0.469,0.66,1.033,0.6
			c1.704-0.182,3.232,0.317,4.543,1.42c0.324,0.272,0.558,0.323,0.937,0.077c4.485-2.917,10.747-1.236,12.927,3.951
			c0.169,0.401,0.362,0.485,0.781,0.365c1.642-0.472,3.274-0.405,4.851,0.264c0.519,0.22,0.623,0.062,0.621-0.429
			c-0.009-2.076-0.005-4.152,0.007-6.228c0.003-0.462-0.191-0.759-0.605-0.945c-1.923-0.866-2.716-2.406-2.676-4.46
			c0.024-1.249-0.006-2.499,0.01-3.749c0.005-0.387-0.083-0.556-0.521-0.606c-0.518-0.06-1.062-0.274-1.259-0.812
			c-0.206-0.563,0.071-1.035,0.474-1.465c1.007-1.074,2.04-2.119,3.133-3.105c1.395-1.26,3.416-1.401,4.88-0.237
			c1.358,1.079,2.515,2.381,3.718,3.628c0.328,0.34,0.428,0.765,0.241,1.232c-0.207,0.517-0.623,0.762-1.136,0.748
			c-0.606-0.017-0.745,0.244-0.728,0.797c0.037,1.249,0.025,2.499,0.024,3.748c0,1.982-0.845,3.451-2.668,4.295
			c-0.422,0.195-0.608,0.463-0.602,0.931C80.159,38.447,80.147,39.793,80.147,41.31z M50.025,48.288
			c4.776,0,9.552-0.003,14.328,0.002c1.171,0.001,1.505,0.35,1.506,1.523c0.002,1.975,0.002,3.95,0,5.925
			c-0.001,1.229-0.297,1.519-1.545,1.519c-1.733,0.001-3.466,0.013-5.198-0.008c-0.475-0.006-0.661,0.155-0.623,0.628
			c0.028,0.361,0.032,0.727-0.001,1.087c-0.047,0.518,0.13,0.723,0.676,0.701c0.966-0.038,1.934-0.011,2.901-0.01
			c1.955,0.001,3.91-0.009,5.864,0.007c0.972,0.008,1.284,0.27,1.356,1.234c0.111,1.486,0.126,2.979-0.015,4.465
			c-0.079,0.829-0.325,1.018-1.147,1.108c-1.087,0.118-2.172-0.041-3.259-0.007c-0.441,0.014-0.608,0.152-0.588,0.603
			c0.031,0.684,0.029,1.371,0.001,2.055c-0.018,0.442,0.126,0.601,0.582,0.597c2.156-0.019,4.313-0.019,6.469,0
			c0.467,0.004,0.586-0.182,0.576-0.609c-0.021-0.866-0.017-1.733,0.001-2.599c0.017-0.806,0.373-1.178,1.176-1.243
			c0.361-0.029,0.728-0.042,1.087-0.007c0.569,0.056,0.796-0.137,0.765-0.736c-0.045-0.844-0.024-1.692-0.004-2.538
			c0.018-0.791,0.408-1.177,1.197-1.219c0.342-0.018,0.688-0.032,1.027,0c0.534,0.051,0.697-0.166,0.695-0.691
			c-0.016-4.171-0.012-8.343-0.005-12.514c0.001-0.534-0.205-0.92-0.647-1.214c-1.515-1.008-3.098-1.164-4.762-0.416
			c-0.312,0.14-0.614,0.307-0.935,0.423c-0.786,0.285-1.213,0.081-1.502-0.713c-0.117-0.321-0.192-0.657-0.295-0.984
			c-1.041-3.31-4.421-5.255-7.703-4.436c-1.139,0.284-2.118,0.855-3.01,1.609c-0.785,0.664-1.256,0.618-1.98-0.123
			c-0.239-0.245-0.471-0.499-0.722-0.731c-1.165-1.075-2.487-1.324-3.972-0.756c-1.197,0.458-1.73,0.147-1.942-1.118
			c-0.211-1.26-0.825-2.264-1.892-2.968c-2.497-1.647-5.68-0.266-6.436,2.785c-0.445,1.794-0.715,1.927-2.407,1.147
			c-1.686-0.777-3.38-0.794-5.104-0.123c-0.575,0.224-0.841,0.567-0.876,1.21c-0.289,5.336-3.945,9.511-9.207,10.514
			c-0.559,0.107-0.699,0.335-0.694,0.874c0.025,3.002,0.012,6.005,0.012,9.008c0,2.519,0.004,5.038-0.003,7.557
			c-0.001,0.362,0.027,0.611,0.504,0.609c3.647-0.014,7.295-0.011,10.942-0.002c0.365,0.001,0.508-0.137,0.502-0.495
			c-0.01-0.705-0.021-1.411,0.005-2.116c0.017-0.467-0.152-0.649-0.628-0.637c-0.967,0.024-1.934,0.011-2.902,0.005
			c-1.196-0.007-1.512-0.32-1.515-1.5c-0.004-1.209-0.002-2.418-0.001-3.627c0.001-1.379,0.293-1.683,1.654-1.686
			c2.479-0.005,4.957-0.002,7.436-0.002c1.717,0,1.697,0,1.702-1.725c0.002-0.539-0.178-0.691-0.699-0.683
			c-1.733,0.026-3.466,0.013-5.199,0.008c-1.098-0.003-1.418-0.307-1.423-1.391c-0.01-2.015-0.01-4.03,0-6.046
			c0.006-1.228,0.276-1.492,1.488-1.527c0.242-0.007,0.484-0.005,0.725-0.005C40.916,48.287,45.471,48.288,50.025,48.288z
			 M50.028,61.974c-5.238,0-10.477-0.006-15.715,0.003c-1.544,0.003-1.314-0.219-1.331,1.352c-0.01,0.896,0,0.898,0.894,0.898
			c5.823,0.001,11.645,0,17.468,0.001c0.322,0,0.645-0.005,0.966,0.016c0.804,0.053,1.218,0.461,1.184,1.148
			c-0.036,0.731-0.414,1.071-1.24,1.077c-1.33,0.009-2.659,0.003-3.989,0.003c-3.163,0-6.326,0.01-9.489-0.009
			c-0.546-0.003-0.765,0.163-0.725,0.726c0.041,0.581,0.047,1.171-0.001,1.751c-0.05,0.61,0.159,0.786,0.776,0.782
			c4.956-0.025,9.912-0.014,14.869-0.014c2.478,0,4.957-0.022,7.434,0.015c0.634,0.01,0.807-0.196,0.762-0.79
			c-0.046-0.621-0.035-1.25-0.003-1.873c0.024-0.456-0.153-0.603-0.592-0.595c-0.967,0.018-1.934,0.019-2.901-0.005
			c-0.672-0.017-0.985-0.363-1.002-1.029c-0.02-0.798,0.384-1.192,1.315-1.198c2.277-0.015,4.553-0.003,6.83-0.008
			c1.722-0.004,1.411,0.105,1.436-1.461c0.013-0.788-0.001-0.791-0.808-0.791C60.787,61.974,55.408,61.974,50.028,61.974z
			 M50.023,54.939c4.272,0,8.545-0.008,12.817,0.01c0.544,0.002,0.751-0.146,0.728-0.713c-0.041-0.986-0.039-1.976-0.001-2.961
			c0.021-0.547-0.186-0.695-0.702-0.678c-0.986,0.033-1.975,0.009-2.962,0.009c-7.557,0-15.114,0.006-22.671-0.012
			c-0.599-0.001-0.825,0.149-0.791,0.776c0.05,0.924,0.011,1.853,0.013,2.78c0.002,0.786,0.003,0.788,0.813,0.788
			C41.519,54.94,45.771,54.939,50.023,54.939z M49.96,59.632c1.571,0,3.143,0.012,4.714-0.003c1.719-0.017,1.433,0.258,1.494-1.519
			c0.021-0.619-0.185-0.783-0.791-0.778c-3.324,0.027-6.648,0.013-9.972,0.013c-1.559,0-1.536,0-1.553,1.572
			c-0.006,0.562,0.184,0.732,0.729,0.724C46.374,59.616,48.167,59.632,49.96,59.632z M81.094,30.091c0.005,0,0.01,0,0.014,0
			c0-0.724-0.014-1.448,0.006-2.172c0.01-0.383-0.122-0.544-0.519-0.538c-1.066,0.016-2.132,0.012-3.197,0.002
			c-0.343-0.003-0.522,0.103-0.519,0.48c0.012,1.488-0.031,2.977,0.023,4.463c0.041,1.117,1.053,1.966,2.159,1.928
			c1.099-0.037,1.984-0.888,2.028-1.992C81.117,31.54,81.094,30.815,81.094,30.091z M78.956,69.709c1.126,0,2.253,0,3.379,0
			c1.443,0,1.415-0.001,1.448-1.416c0.014-0.592-0.184-0.75-0.755-0.743c-2.433,0.027-4.867-0.001-7.301,0.015
			c-1.762,0.012-1.465-0.265-1.515,1.548c-0.014,0.496,0.19,0.611,0.641,0.604C76.22,69.696,77.588,69.709,78.956,69.709z
			 M78.974,65.217c1.837,0.002,1.827,0.002,1.779-1.621c-0.011-0.379-0.122-0.553-0.519-0.537c-0.481,0.02-0.963-0.007-1.445,0.005
			c-1.861,0.048-1.52-0.37-1.563,1.651c-0.008,0.354,0.116,0.52,0.485,0.506C78.131,65.205,78.553,65.217,78.974,65.217z
			 M78.959,25.04c0.622,0,1.244,0.004,1.866-0.002c0.238-0.002,0.398-0.039,0.217-0.35c-0.99-1.702-2.467-1.868-3.758-0.408
			c-0.106,0.12-0.204,0.247-0.309,0.369c-0.225,0.262-0.153,0.389,0.179,0.391C77.756,25.043,78.357,25.041,78.959,25.04z"/>
		<path class="st0" d="M44.328,79.873c-10.38,0-20.759,0-31.139-0.001c-0.342,0-0.684,0.018-1.021-0.072
			c-0.542-0.145-0.817-0.493-0.811-1.051c0.006-0.572,0.314-0.955,0.894-1.044c0.476-0.073,0.962-0.112,1.444-0.112
			c20.416-0.005,40.833-0.005,61.249,0c0.482,0,0.967,0.041,1.445,0.107c0.542,0.075,0.862,0.373,0.88,0.967
			c0.018,0.586-0.209,0.966-0.782,1.129c-0.336,0.095-0.679,0.077-1.021,0.077C65.087,79.873,54.708,79.873,44.328,79.873z"/>
		<path class="st0" d="M67.808,17.55c-0.023,3.374-2.813,6.154-6.182,6.159c-3.426,0.005-6.201-2.845-6.172-6.338
			c0.028-3.325,2.836-6.069,6.199-6.058C65.05,11.325,67.832,14.144,67.808,17.55z M65.522,17.509c0-2.116-1.773-3.904-3.879-3.91
			c-2.119-0.006-3.895,1.756-3.904,3.873c-0.008,2.147,1.787,3.97,3.897,3.958C63.729,21.418,65.522,19.609,65.522,17.509z"/>
		<path class="st0" d="M84.869,79.869c-0.785,0-1.57,0.016-2.355-0.005c-0.76-0.02-1.156-0.414-1.16-1.1
			c-0.004-0.701,0.37-1.085,1.145-1.104c1.548-0.037,3.098-0.065,4.646-0.064c0.938,0,1.538,0.457,1.547,1.101
			c0.01,0.7-0.628,1.186-1.59,1.196c-0.744,0.008-1.489,0.002-2.234,0.002C84.869,79.887,84.869,79.878,84.869,79.869z"/>
		<path class="st0" d="M78.076,88.685c-0.595-0.004-1.078-0.54-1.072-1.189c0.005-0.582,0.546-1.107,1.13-1.097
			c0.582,0.01,1.075,0.549,1.057,1.156C79.171,88.241,78.729,88.69,78.076,88.685z"/>
		<path class="st0" d="M15.922,83.123c0.007,0.66-0.421,1.139-1.04,1.164c-0.635,0.026-1.138-0.481-1.132-1.139
			c0.006-0.655,0.443-1.104,1.083-1.113C15.487,82.026,15.914,82.453,15.922,83.123z"/>
		<path class="st0" d="M55.941,83.161c-0.007-0.668,0.411-1.113,1.057-1.126c0.641-0.012,1.099,0.429,1.118,1.076
			c0.019,0.66-0.468,1.184-1.097,1.179C56.403,84.285,55.948,83.808,55.941,83.161z"/>
		<path class="st0" d="M64.057,88.685c-0.616,0.002-1.096-0.511-1.097-1.172c-0.001-0.604,0.518-1.12,1.117-1.11
			c0.571,0.009,1.056,0.511,1.065,1.101C65.152,88.171,64.681,88.683,64.057,88.685z"/>
		<path class="st0" d="M21.856,88.685c-0.53-0.011-1.066-0.625-1.069-1.226c-0.004-0.598,0.525-1.079,1.158-1.053
			c0.554,0.022,1.02,0.548,1.015,1.143C22.952,88.229,22.497,88.698,21.856,88.685z"/>
		<path class="st0" d="M72.161,83.134c0.003,0.68-0.469,1.17-1.108,1.152c-0.599-0.016-1.068-0.523-1.066-1.152
			c0.002-0.64,0.459-1.099,1.095-1.099C71.735,82.034,72.158,82.466,72.161,83.134z"/>
		<path class="st0" d="M29.974,83.12c0.012,0.649-0.424,1.146-1.03,1.172c-0.617,0.027-1.143-0.494-1.145-1.137
			c-0.002-0.632,0.46-1.109,1.084-1.12C29.538,82.025,29.962,82.446,29.974,83.12z"/>
		<path class="st0" d="M41.89,83.122c0.01-0.669,0.438-1.096,1.091-1.086c0.628,0.009,1.086,0.48,1.085,1.117
			c-0.001,0.644-0.522,1.163-1.143,1.137C42.316,84.265,41.88,83.772,41.89,83.122z"/>
		<path class="st0" d="M86.213,83.172c-0.01,0.649-0.486,1.137-1.094,1.122c-0.601-0.015-1.084-0.536-1.076-1.161
			c0.009-0.648,0.474-1.106,1.117-1.098C85.81,82.043,86.223,82.489,86.213,83.172z"/>
		<path class="st0" d="M50.901,87.616c-0.01,0.848-0.214,1.083-0.933,1.069c-0.567-0.011-1.058-0.627-1.039-1.303
			c0.016-0.584,0.356-0.885,0.984-0.872C50.662,86.524,50.91,86.802,50.901,87.616z"/>
		<path class="st0" d="M36.849,87.686c-0.013,0.782-0.23,1.014-0.932,0.999c-0.496-0.011-0.995-0.542-1-1.065
			c-0.006-0.593,0.481-1.123,1.019-1.111C36.624,86.525,36.863,86.833,36.849,87.686z"/>
	</g>
</g>
</svg>
