<?xml version="1.0" encoding="utf-8"?>
<!-- Generator: Adobe Illustrator 23.1.0, SVG Export Plug-In . SVG Version: 6.00 Build 0)  -->
<svg version="1.1" xmlns="http://www.w3.org/2000/svg" xmlns:xlink="http://www.w3.org/1999/xlink" x="0px" y="0px" width="100px"
	 height="100px" viewBox="0 0 100 100" style="enable-background:new 0 0 100 100;" xml:space="preserve">
<style type="text/css">
	.st0{fill:#00AEEF;}
</style>
<g id="Layer_8">
	<g>
		<path class="st0" d="M48.284,72.611c-1.525-0.064-2.646,0.356-3.617,1.315c-1.581,1.562-3.147,3.14-4.711,4.719
			c-0.261,0.263-0.305,0.477-0.167,0.82c0.366,0.908,0.611,1.848,0.539,2.842c-0.095,1.299-0.749,2.331-1.609,3.242
			c-0.858,0.908-1.736,1.798-2.644,2.656c-2.201,2.081-5.184,2.105-7.391,0.041c-1.14-1.066-2.225-2.193-3.316-3.309
			c-0.471-0.481-0.75-1.055-0.516-1.752c0.191-0.568,0.595-0.924,1.184-1.036c0.642-0.122,1.145,0.178,1.579,0.605
			c0.904,0.889,1.795,1.79,2.693,2.685c1.606,1.6,2.512,1.595,4.128-0.021c0.572-0.572,1.145-1.142,1.715-1.715
			c1.407-1.417,1.417-2.279,0.02-3.693c-3.589-3.633-7.176-7.27-10.781-10.887c-1.854-1.86-3.664-3.767-5.619-5.525
			c-0.994-0.894-1.965-0.874-2.925,0.056c-0.897,0.869-1.782,1.75-2.649,2.648c-0.968,1.002-0.951,2.044,0.032,3.055
			c1.037,1.067,2.1,2.11,3.124,3.189c0.821,0.865,0.786,1.77-0.043,2.497c-0.552,0.485-1.207,0.549-1.746,0.047
			c-1.491-1.39-3.025-2.749-4.271-4.369c-1.426-1.854-1.221-4.585,0.422-6.4c0.974-1.076,2.004-2.1,3.076-3.08
			c1.462-1.337,3.153-1.746,5.057-1.173c0.531,0.16,0.956,0.084,1.351-0.321c1.387-1.419,2.78-2.832,4.19-4.228
			c0.284-0.281,0.291-0.443,0.028-0.758c-1.793-2.15-1.947-4.813-0.438-6.908c0.54-0.749,1.245-1.299,2.067-1.694
			c0.367-0.176,0.471-0.324,0.274-0.741c-1.53-3.243-0.212-6.49,3.134-7.745c0.341-0.128,0.432-0.275,0.391-0.64
			c-0.337-2.995,0.862-5.018,3.665-6.177c0.403-0.167,0.5-0.358,0.436-0.782c-0.567-3.75,2.482-6.8,6.224-6.229
			c0.609,0.093,1.135,0.016,1.677-0.315c1.246-0.759,2.61-0.625,3.964-0.374c3.322,0.615,6.641,1.247,9.964,1.86
			c0.45,0.083,0.91,0.123,1.368,0.144c3.302,0.149,5.474,2.531,5.304,5.831c-0.052,1.003-0.052,1.003,0.838,1.4
			c2.297,1.023,3.557,3.212,3.235,5.699c-0.069,0.531,0.017,0.795,0.566,1.016c2.615,1.055,3.87,3.235,3.536,6.051
			c-0.044,0.373,0.039,0.545,0.407,0.691c3.864,1.535,4.94,5.771,2.282,8.971c-0.238,0.287-0.257,0.454,0.018,0.721
			c1.464,1.42,2.918,2.849,4.359,4.293c0.32,0.321,0.628,0.368,1.04,0.225c2.288-0.795,4.258-0.26,5.942,1.45
			c0.748,0.759,1.511,1.503,2.259,2.263c2.322,2.357,2.312,5.444-0.029,7.783c-5.485,5.48-10.97,10.959-16.458,16.437
			c-2.184,2.18-5.245,2.207-7.496,0.081c-0.975-0.921-1.935-1.857-2.841-2.847c-1.42-1.551-1.802-3.333-1.097-5.311
			c0.208-0.585,0.124-0.982-0.324-1.416c-1.768-1.713-3.507-3.455-5.25-5.194c-0.312-0.312-0.649-0.495-1.106-0.53
			C51.583,72.639,49.834,72.766,48.284,72.611z M52.74,36.161c0.003,2.815-1.757,4.895-4.595,5.404
			c-0.611,0.11-0.844,0.34-0.949,0.95c-0.431,2.517-1.966,4.034-4.438,4.48c-0.86,0.155-0.86,0.155-1.015,1.013
			c-0.442,2.436-2.027,4.061-4.472,4.456c-0.671,0.109-0.885,0.369-0.989,1.015c-0.553,3.446-4.194,5.494-7.392,4.154
			c-0.65-0.272-1.05-0.132-1.501,0.328c-1.171,1.193-2.368,2.36-3.564,3.527c-0.65,0.635-0.667,0.634-0.025,1.279
			c4.472,4.491,8.949,8.976,13.417,13.472c0.261,0.262,0.407,0.301,0.691,0.012c1.697-1.732,3.414-3.444,5.128-5.16
			c0.873-0.874,1.9-1.42,3.158-1.504c1.709-0.115,3.413-0.039,5.117,0.085c2.381,0.174,4.493-0.343,6.019-2.363
			c0.24-0.318,0.569-0.517,0.977-0.56c0.668-0.07,1.191,0.181,1.55,0.74c0.389,0.605,0.279,1.214-0.125,1.749
			c-0.542,0.718-1.118,1.411-1.715,2.084c-0.305,0.344-0.325,0.56,0.026,0.901c1.33,1.294,2.64,2.608,3.924,3.947
			c0.353,0.368,0.535,0.314,0.862-0.016c4.438-4.472,8.888-8.934,13.344-13.388c0.293-0.293,0.347-0.466,0.022-0.786
			c-1.297-1.274-2.563-2.58-3.843-3.872c-0.662-0.668-0.664-0.665-1.372-0.005c-0.134,0.125-0.271,0.249-0.417,0.359
			c-0.7,0.53-1.528,0.496-2.102-0.081c-0.576-0.58-0.615-1.405-0.084-2.1c0.155-0.203,0.343-0.382,0.524-0.565
			c1.023-1.029,2.071-2.035,3.068-3.089c0.9-0.952,0.896-2.239,0.058-3.133c-0.861-0.918-2.166-0.988-3.175-0.152
			c-0.324,0.268-0.617,0.576-0.912,0.877c-0.284,0.29-0.571,0.574-0.926,0.775c-0.634,0.357-1.341,0.279-1.833-0.194
			c-0.486-0.468-0.594-1.185-0.274-1.828c0.158-0.317,0.394-0.573,0.642-0.821c0.779-0.78,1.582-1.537,2.326-2.349
			c0.887-0.969,0.865-2.313,0.007-3.187c-0.863-0.879-2.125-0.926-3.135-0.087c-0.423,0.351-0.805,0.751-1.199,1.137
			c-0.289,0.283-0.564,0.582-0.941,0.753c-0.54,0.246-1.069,0.251-1.565-0.108c-0.494-0.357-0.677-0.849-0.603-1.446
			c0.059-0.483,0.333-0.845,0.661-1.178c0.927-0.942,1.902-1.844,2.768-2.84c0.85-0.977,0.757-2.234-0.1-3.088
			c-0.854-0.851-2.087-0.898-3.093-0.071c-0.495,0.407-0.935,0.881-1.394,1.331c-0.251,0.247-0.517,0.469-0.844,0.607
			c-0.611,0.259-1.216,0.147-1.675-0.315c-0.466-0.469-0.547-1.022-0.322-1.625c0.124-0.332,0.344-0.602,0.595-0.851
			c0.885-0.881,1.787-1.748,2.642-2.657c0.956-1.017,0.89-2.454-0.104-3.336c-0.954-0.845-2.237-0.766-3.259,0.233
			c-1.274,1.245-2.524,2.516-3.796,3.763c-0.366,0.359-0.436,0.731-0.231,1.194C52.596,34.728,52.777,35.455,52.74,36.161z
			 M86.496,67.695c0.017-0.631-0.265-1.134-0.687-1.569c-0.614-0.633-1.239-1.253-1.855-1.883c-0.583-0.596-1.214-1.119-2.004-1.423
			c-0.173-0.067-0.329-0.145-0.522-0.048c-0.54,0.272-1.086,0.518-1.528,0.961c-1.75,1.756-3.521,3.49-5.275,5.241
			c-3.665,3.658-7.326,7.32-10.984,10.985c-1.076,1.077-1.145,2.163-0.168,3.196c0.857,0.907,1.741,1.792,2.652,2.644
			c1.042,0.974,2.095,0.938,3.111-0.055c0.998-0.975,1.995-1.951,2.982-2.937c2.756-2.75,5.506-5.504,8.259-8.257
			c1.727-1.727,3.455-3.452,5.179-5.182C86.116,68.904,86.505,68.398,86.496,67.695z M44.154,41.711
			c0.024-0.539-0.143-1.015-0.488-1.424c-0.213-0.252-0.437-0.496-0.671-0.729c-1.692-1.682-3.382-3.368-5.086-5.038
			c-1.164-1.141-2.724-1.028-3.608,0.238c-0.659,0.943-0.534,2.033,0.408,2.99c1.635,1.662,3.297,3.297,4.948,4.942
			c0.377,0.376,0.745,0.757,1.237,0.996C42.412,44.426,44.106,43.404,44.154,41.711z M40.206,26.922
			c-0.932,0.04-1.6,0.502-1.989,1.332c-0.406,0.867-0.299,1.732,0.357,2.41c2.375,2.455,4.776,4.885,7.265,7.225
			c0.429,0.403,0.992,0.691,1.579,0.709c0.964,0.03,1.931-0.915,2.153-1.977c0.206-0.989-0.084-1.459-1.245-2.018
			c-0.05-0.024-0.099-0.047-0.149-0.072c-2.926-1.441-5.122-3.594-6.415-6.615C41.463,27.215,40.953,26.904,40.206,26.922z
			 M29.803,42.79c0.036,0.714,0.307,1.28,0.779,1.755c1.074,1.082,2.151,2.161,3.223,3.245c0.662,0.67,1.347,1.303,2.252,1.639
			c0.173,0.064,0.332,0.144,0.528,0.098c0.959-0.226,1.672-0.733,1.994-1.704c0.307-0.926,0.029-1.69-0.632-2.357
			c-0.736-0.744-1.459-1.502-2.2-2.24c-0.703-0.7-1.398-1.41-2.142-2.064c-0.716-0.63-1.557-0.819-2.456-0.39
			C30.293,41.181,29.869,41.892,29.803,42.79z M33.232,52.555c-0.025-0.376-0.066-0.727-0.313-1.001
			c-0.773-0.858-1.536-1.731-2.457-2.438c-0.825-0.634-1.86-0.501-2.679,0.306c-0.79,0.779-0.962,1.898-0.371,2.695
			c0.624,0.841,1.338,1.602,2.172,2.248c0.716,0.555,1.479,0.733,2.305,0.302C32.743,54.223,33.14,53.469,33.232,52.555z
			 M44.892,26.124c-0.375-0.02-0.409,0.019-0.26,0.41c0.823,2.156,2.365,3.681,4.286,4.874c0.195,0.121,0.33,0.086,0.481-0.067
			c1.149-1.163,2.302-2.323,3.456-3.48c0.258-0.258,0.153-0.35-0.151-0.399c-0.453-0.073-0.903-0.165-1.353-0.252
			C49.206,26.799,47.079,26.285,44.892,26.124z"/>
		<path class="st0" d="M30.363,19.452c-0.666-0.015-1.09-0.262-1.45-0.619c-1.769-1.76-3.533-3.527-5.295-5.294
			c-0.342-0.343-0.54-0.783-0.764-1.204c-0.04-0.075-0.068-0.178-0.051-0.258c0.274-1.301,1.864-1.861,2.797-0.942
			c1.882,1.854,3.823,3.651,5.616,5.593c0.751,0.814,0.715,1.755-0.028,2.378C30.911,19.339,30.594,19.464,30.363,19.452z"/>
		<path class="st0" d="M76.775,12.26c-0.006,0.473-0.224,0.848-0.545,1.17c-1.83,1.834-3.658,3.67-5.497,5.494
			c-0.686,0.68-1.641,0.71-2.275,0.108c-0.609-0.579-0.627-1.596,0.039-2.274c1.866-1.9,3.754-3.779,5.652-5.647
			c0.483-0.476,1.09-0.614,1.728-0.306C76.477,11.093,76.783,11.585,76.775,12.26z"/>
		<path class="st0" d="M51.41,15.323c0,1.12,0.015,2.239-0.006,3.358c-0.013,0.687-0.273,1.264-0.957,1.537
			c-1.012,0.404-2.053-0.275-2.116-1.391c-0.036-0.64-0.009-1.284-0.012-1.927c-0.007-1.487-0.016-2.973-0.019-4.46
			c-0.001-0.275,0-0.554,0.044-0.823c0.15-0.91,0.781-1.428,1.669-1.396c0.711,0.026,1.341,0.682,1.385,1.523
			c0.041,0.769,0.012,1.541,0.013,2.312c0.001,0.422,0,0.844,0,1.266C51.411,15.323,51.411,15.323,51.41,15.323z"/>
		<path class="st0" d="M22.653,78.608c0.007,0.858-0.647,1.532-1.51,1.558c-0.866,0.025-1.582-0.676-1.582-1.551
			c-0.001-0.832,0.695-1.553,1.52-1.575C21.925,77.017,22.646,77.736,22.653,78.608z"/>
		<path class="st0" d="M64.997,63.364c0.009,0.909-0.632,1.541-1.562,1.538c-0.884-0.002-1.536-0.647-1.537-1.52
			c-0.001-0.831,0.696-1.555,1.519-1.576C64.261,61.782,64.989,62.501,64.997,63.364z"/>
	</g>
</g>
<g id="Layer_6">
</g>
<g id="Layer_7">
</g>
<g id="Layer_2">
</g>
<g id="Layer_3">
</g>
<g id="Layer_4">
</g>
<g id="Layer_5">
</g>
</svg>
