<?xml version="1.0" encoding="utf-8"?>
<!-- Generator: Adobe Illustrator 23.1.0, SVG Export Plug-In . SVG Version: 6.00 Build 0)  -->
<svg version="1.1" xmlns="http://www.w3.org/2000/svg" xmlns:xlink="http://www.w3.org/1999/xlink" x="0px" y="0px" width="100px"
	 height="100px" viewBox="0 0 100 100" style="enable-background:new 0 0 100 100;" xml:space="preserve">
<style type="text/css">
	.st0{fill:#00AEEF;}
</style>
<g id="Layer_8">
</g>
<g id="Layer_6">
</g>
<g id="Layer_7">
</g>
<g id="Layer_2">
	<path class="st0" d="M83.698,89.637h-67.31c-3.361,0-6.086-2.725-6.086-6.086V16.363c0-3.314,2.686-6,6-6h67.396
		c3.314,0,6,2.686,6,6v67.275C89.698,86.951,87.012,89.637,83.698,89.637z M26.072,80.801c0.004-8.156,0.038-16.063-0.038-23.968
		c-0.016-1.672-0.321-3.329-0.899-4.898c-3.393-9.207-6.892-18.374-10.37-27.55c-0.232-0.614-0.576-1.185-1.144-2.338v58.275
		c0,3.314,2.686,6,6,6h60.776c3.314,0,6-2.686,6-6V22.76c-0.677,0.526-0.974,1.136-1.214,1.768c-1.78,4.68-3.288,9.488-5.314,14.052
		c-4.287,9.66-6.246,20.194-6.032,30.761c0.076,3.752,0.126,7.514,0.076,11.375c-0.012,0.89-0.742,1.61-1.632,1.61l0,0
		c-0.902,0-1.633-0.731-1.633-1.633V55.741H29.207v25.068c0,0.866-0.702,1.567-1.567,1.567h0
		C26.774,82.376,26.072,81.667,26.072,80.801z M51.831,13.494v10.695c4.207,0,8.172,0.024,12.137-0.036
		c0.422-0.006,1.133-0.441,1.209-0.787c0.704-3.209,1.298-6.442,1.964-9.872H51.831z M48.198,24.165V13.537h-15.31
		c0.623,3.307,1.163,6.408,1.833,9.481c0.098,0.451,0.805,1.088,1.241,1.097C40.013,24.2,44.066,24.165,48.198,24.165z
		 M31.536,24.204c-0.646-3.522-1.141-6.536-1.8-9.513c-0.113-0.508-0.917-1.221-1.414-1.231c-3.689-0.076-7.379-0.066-11.306-0.059
		c-1.395,0.002-2.361,1.402-1.871,2.708c0.917,2.445,1.774,4.73,2.712,6.983c0.212,0.508,1.06,1.05,1.627,1.064
		C23.356,24.248,27.231,24.204,31.536,24.204z M84.856,16.095c0.492-1.307-0.477-2.706-1.873-2.708
		c-3.912-0.007-7.541-0.017-11.168,0.054c-0.525,0.01-1.39,0.64-1.498,1.118c-0.687,3.055-1.206,6.147-1.85,9.601
		c4.378,0,8.417,0.037,12.454-0.052c0.446-0.01,1.083-0.648,1.281-1.137C83.097,20.763,83.937,18.534,84.856,16.095z M34.178,38.212
		c-0.617-3.397-1.067-6.246-1.696-9.056c-0.14-0.626-0.889-1.573-1.386-1.591c-3.737-0.134-7.481-0.073-11.613-0.073
		c1.317,3.53,2.414,6.573,3.615,9.576c0.19,0.477,0.837,1.08,1.288,1.094C27.523,38.257,30.663,38.212,34.178,38.212z
		 M51.595,27.633c0,3.195-0.02,10.355-0.02,10.355l11.032,0.116c0,0,1.204-7.168,1.83-10.471H51.595z M35.569,27.615l1.918,10.412
		H48.19V27.615H35.569z M80.542,27.479c-4.121,0-7.728-0.059-11.33,0.061c-0.714,0.024-1.44,0.618-1.599,1.314
		c-0.677,2.963-1.157,5.971-1.776,9.357c3.487,0,6.627,0.046,9.762-0.051c0.455-0.014,1.104-0.62,1.297-1.1
		C78.105,34.058,79.211,31.015,80.542,27.479z M51.792,41.748v10.538c2.357,0,4.511,0.095,6.646-0.063
		c0.699-0.052,1.411-0.637,1.568-1.32c0.68-2.96,1.167-5.964,1.759-9.155H51.792z M38.197,41.717
		c0.646,3.373,1.217,6.527,1.893,9.658c0.078,0.363,0.727,0.842,1.126,0.857c2.304,0.082,4.613,0.04,6.963,0.04V41.717H38.197z
		 M36.826,52.273c-0.619-3.351-1.12-6.36-1.777-9.333c-0.116-0.526-0.873-1.274-1.361-1.296c-2.84-0.123-5.689-0.06-8.91-0.06
		c1.332,3.543,2.437,6.593,3.652,9.599c0.189,0.467,0.865,1.018,1.34,1.041C32.007,52.334,34.252,52.273,36.826,52.273z
		 M75.209,41.586c-3.265,0-6.132-0.048-8.995,0.052c-0.424,0.015-1.091,0.668-1.192,1.125c-0.671,3.051-1.219,6.128-1.868,9.517
		c2.586,0,4.745,0.079,6.892-0.054c0.554-0.034,1.341-0.62,1.555-1.144C72.829,48.089,73.916,45.039,75.209,41.586z"/>
</g>
<g id="Layer_3">
</g>
<g id="Layer_4">
</g>
<g id="Layer_5">
</g>
</svg>
