<?xml version="1.0" encoding="utf-8"?>
<!-- Generator: Adobe Illustrator 23.1.0, SVG Export Plug-In . SVG Version: 6.00 Build 0)  -->
<svg version="1.1" xmlns="http://www.w3.org/2000/svg" xmlns:xlink="http://www.w3.org/1999/xlink" x="0px" y="0px" width="100px"
	 height="100px" viewBox="0 0 100 100" style="enable-background:new 0 0 100 100;" xml:space="preserve">
<style type="text/css">
	.st0{fill:#00AEEF;}
</style>
<g id="Layer_8">
</g>
<g id="Layer_6">
</g>
<g id="Layer_7">
	<g>
		<path class="st0" d="M59.721,45.101c6.772,0,13.544-0.043,20.315,0.016c4.224,0.037,7.413,3.116,7.708,7.346
			c0.214,3.07,0.067,6.149,0.061,9.224c-0.001,0.738,0.226,0.971,0.934,1.081c3.488,0.541,5.738,3.191,5.747,6.718
			c0.01,4.16,0.01,8.321,0,12.481c-0.009,3.927-2.637,6.627-6.551,6.796c-2.499,0.108-4.997,0.099-7.495,0.006
			c-1.025-0.038-1.441-0.507-1.493-1.618c-0.13-2.787-0.016-5.572,0-8.359c0.005-0.933-0.002-0.934-0.958-0.934
			c-10.003,0-20.006,0-30.009-0.002c-0.332,0-0.668,0.013-0.994-0.035c-0.784-0.116-1.207-0.628-1.209-1.414
			c-0.003-0.791,0.408-1.294,1.195-1.426c0.26-0.044,0.529-0.038,0.794-0.038c10.689-0.002,21.378-0.002,32.067-0.001
			c1.607,0,2.033,0.424,2.038,2.058c0.008,2.7,0.004,5.4,0.001,8.1c0,0.371-0.027,0.713,0.517,0.709
			c2.012-0.015,4.028,0.129,6.036-0.067c1.722-0.168,2.966-1.534,3.071-3.266c0.077-1.26,0.077-2.521,0.064-3.781
			c-0.03-3.119,0.065-6.239-0.06-9.358c-0.079-1.961-1.235-3.376-3.174-3.649c-1.072-0.151-2.172-0.151-3.244,0.002
			c-1.871,0.267-3.105,1.695-3.199,3.596c-0.024,0.486,0.008,0.976-0.044,1.459c-0.09,0.837-0.599,1.318-1.37,1.358
			c-0.751,0.039-1.311-0.417-1.501-1.221c-0.781-3.309,1.341-6.858,4.718-7.89c1.167-0.356,1.169-0.356,1.167-1.591
			c-0.006-2.81,0.013-5.621-0.031-8.431c-0.043-2.755-1.951-4.753-4.686-4.883c-4.179-0.199-8.363-0.046-12.544-0.08
			c-1.814-0.014-3.629,0.022-5.443,0.01c-0.672-0.005-0.88,0.249-0.876,0.938C61.304,54,61.29,59.046,61.29,64.091
			c0,0.354,0.003,0.706-0.105,1.051c-0.218,0.695-0.7,1.044-1.44,1.02c-0.68-0.021-1.214-0.471-1.331-1.163
			c-0.051-0.303-0.047-0.617-0.047-0.926c-0.003-5.024-0.001-10.047-0.002-15.071c0-0.889-0.003-0.892-0.897-0.975
			c-0.242-0.022-0.486-0.024-0.729-0.024C51.316,48.002,45.894,48,40.472,48.006c-0.729,0.001-1.46,0.039-2.176,0.197
			c-2.173,0.481-3.58,2.079-3.834,4.29c-0.158,1.369-0.029,2.742-0.11,4.111c-0.063,1.08-0.931,1.651-1.959,1.314
			c-0.546-0.179-0.873-0.572-0.894-1.121c-0.073-1.967-0.17-3.942,0.29-5.88c0.727-3.065,3.225-5.288,6.361-5.708
			c0.681-0.091,1.363-0.135,2.051-0.134c6.506,0.005,13.013,0.003,19.519,0.003C59.721,45.085,59.721,45.093,59.721,45.101z"/>
		<path class="st0" d="M52.686,88.84c-6.217,0-12.435,0.014-18.652-0.012c-1.211-0.005-2.436,0.044-3.634-0.211
			c-3.066-0.654-5.152-3.073-5.196-6.199c-0.061-4.38-0.08-8.762-0.016-13.142c0.055-3.775,2.749-6.436,6.525-6.559
			c1.234-0.04,2.478-0.12,3.705,0.132c3.069,0.629,5.227,3.163,5.279,6.296c0.046,2.743,0.018,5.487,0.022,8.23
			c0,0.289-0.031,0.573-0.137,0.846c-0.244,0.628-0.79,0.986-1.446,0.941c-0.654-0.045-1.162-0.471-1.284-1.143
			c-0.067-0.367-0.066-0.749-0.067-1.124c-0.006-2.19,0.003-4.381-0.007-6.571c-0.002-0.485-0.035-0.973-0.097-1.454
			c-0.223-1.723-1.246-2.818-2.964-3.116c-1.248-0.217-2.516-0.254-3.759,0.007c-1.67,0.351-2.835,1.769-2.843,3.467
			c-0.02,4.358-0.024,8.717,0.001,13.076c0.011,1.898,1.53,3.402,3.469,3.527c0.309,0.02,0.619,0.012,0.929,0.012
			c13.143,0.001,26.285,0.001,39.428,0c0.443,0,0.886-0.012,1.315,0.13c0.657,0.217,1.068,0.812,1.011,1.466
			c-0.06,0.687-0.521,1.206-1.209,1.298c-0.481,0.064-0.969,0.097-1.454,0.098C65.298,88.842,58.992,88.84,52.686,88.84z"/>
		<path class="st0" d="M16.293,51.694c0-9.447-0.003-18.894,0.001-28.341c0.003-6.757,5.376-12.096,12.135-12.195
			c4.031-0.059,7.402,1.26,10.083,4.287c0.352,0.398,0.705,0.799,0.757,1.367c0.058,0.634-0.154,1.133-0.726,1.443
			c-0.568,0.308-1.12,0.238-1.606-0.166c-0.27-0.224-0.49-0.508-0.729-0.768c-2.713-2.947-6.073-3.91-9.887-2.923
			c-3.748,0.969-6.084,3.453-6.909,7.278c-0.13,0.604-0.204,1.22-0.204,1.843c0.001,9.27-0.083,18.541,0.024,27.81
			c0.112,9.733,0.013,19.465,0.067,29.198c0.002,0.396-0.019,0.798-0.091,1.187c-0.141,0.759-0.627,1.135-1.402,1.143
			c-0.697,0.007-1.242-0.389-1.369-1.105c-0.237-1.336-0.114-2.693-0.117-4.038c-0.022-8.673-0.011-17.345-0.011-26.018
			C16.303,51.694,16.298,51.694,16.293,51.694z"/>
		<path class="st0" d="M44.291,36.312c-3.314-0.071-6.628,0.093-9.942,0.071c-1.104-0.007-2.209-0.044-3.313-0.083
			c-0.661-0.023-1.216-0.301-1.302-0.996c-0.658-5.28,0.705-10.429,6.718-12.763c6.521-2.532,13.725,2.413,13.863,9.39
			c0.019,0.972,0.083,1.939-0.005,2.912c-0.09,0.99-0.508,1.446-1.511,1.463C47.296,36.33,45.794,36.312,44.291,36.312z
			 M39.992,33.376c2.233,0,4.467,0.002,6.7-0.002c0.321-0.001,0.647,0.069,0.697-0.457c0.405-4.265-3.306-8.248-7.576-8.132
			c-3.164,0.086-7.496,2.827-7.237,7.855c0.029,0.572,0.208,0.756,0.783,0.748C35.57,33.359,37.781,33.376,39.992,33.376z"/>
		<path class="st0" d="M13.9,85.846c2.123,0,4.247,0.001,6.37-0.001c0.356,0,0.707,0.018,1.049,0.127
			c0.685,0.218,1.071,0.764,1.02,1.448c-0.056,0.746-0.499,1.235-1.241,1.326c-0.438,0.054-0.882,0.1-1.322,0.089
			c-3.979-0.102-7.958-0.013-11.937,0c-0.395,0.001-0.799-0.033-1.182-0.124c-0.869-0.206-1.186-0.688-1.148-1.58
			c0.015-0.342,0.154-0.589,0.408-0.793c0.472-0.38,1.02-0.496,1.613-0.495C9.653,85.849,11.776,85.846,13.9,85.846z"/>
	</g>
</g>
<g id="Layer_2">
</g>
<g id="Layer_3">
</g>
<g id="Layer_4">
</g>
<g id="Layer_5">
</g>
</svg>
