<?xml version="1.0" encoding="utf-8"?>
<!-- Generator: Adobe Illustrator 23.1.0, SVG Export Plug-In . SVG Version: 6.00 Build 0)  -->
<svg version="1.1" xmlns="http://www.w3.org/2000/svg" xmlns:xlink="http://www.w3.org/1999/xlink" x="0px" y="0px" width="100px"
	 height="100px" viewBox="0 0 100 100" style="enable-background:new 0 0 100 100;" xml:space="preserve">
<style type="text/css">
	.st0{fill:#00AEEF;}
</style>
<g id="Layer_8">
</g>
<g id="Layer_6">
</g>
<g id="Layer_7">
</g>
<g id="Layer_2">
</g>
<g id="Layer_3">
</g>
<g id="Layer_4">
	<g>
		<path class="st0" d="M80.804,82.234c0-1.347-0.015-2.543,0.009-3.738c0.008-0.37-0.204-0.424-0.469-0.51
			c-3.424-1.106-5.217-3.621-5.781-7.021c-0.607-3.659,0.373-6.879,3.359-9.23c2.764-2.177,6.343-1.919,8.934,0.477
			c4.228,3.911,3.802,11.484-0.83,14.744c-0.662,0.466-1.375,0.829-2.162,1.015c-0.377,0.089-0.503,0.26-0.5,0.651
			c0.017,2.673,0.019,5.347-0.001,8.02c-0.003,0.458,0.134,0.592,0.587,0.584c1.416-0.026,2.834-0.014,4.251-0.008
			c1.002,0.005,1.593,0.498,1.581,1.299c-0.012,0.796-0.599,1.265-1.617,1.265c-25.451,0.002-50.903,0.002-76.354,0
			c-1.006,0-1.593-0.494-1.582-1.298c0.01-0.799,0.593-1.262,1.613-1.266c1.417-0.005,2.834-0.014,4.251,0.006
			c0.405,0.006,0.522-0.106,0.565-0.531c0.095-0.941-0.122-1.612-1.042-2.067c-0.76-0.375-1.44-0.918-2.14-1.409
			c-0.726-0.508-0.888-1.229-0.448-1.862c0.42-0.605,1.121-0.722,1.841-0.279c0.56,0.344,1.101,0.719,1.769,1.158
			c0-1.368-0.011-2.587,0.005-3.807c0.006-0.459-0.364-0.399-0.607-0.478c-3.279-1.072-5.567-4.222-5.796-8.001
			c-0.239-3.947,1.728-7.633,4.865-9.042c2.462-1.106,4.806-0.799,6.956,0.786c4.762,3.511,4.718,11.674-0.06,15.16
			c-0.675,0.493-1.4,0.892-2.214,1.088c-0.423,0.102-0.6,0.265-0.595,0.747c0.029,2.646,0.023,5.293,0.005,7.94
			c-0.003,0.439,0.1,0.603,0.573,0.598c2.192-0.024,4.385-0.024,6.576,0c0.48,0.005,0.611-0.171,0.563-0.604
			c-0.023-0.211-0.004-0.427-0.004-0.641c0-22.885,0-45.77,0-68.654c0-1.65,0.323-1.977,1.952-1.978c2.54,0,5.08-0.018,7.619,0.013
			c0.565,0.007,0.736-0.147,0.709-0.711c-0.047-0.96-0.02-1.924-0.011-2.887c0.01-1.063,0.462-1.544,1.496-1.545
			c7.566-0.006,15.132-0.007,22.698,0.001c0.991,0.001,1.454,0.488,1.468,1.494c0.013,0.962,0.038,1.927-0.01,2.887
			c-0.029,0.584,0.117,0.774,0.738,0.765c2.593-0.038,5.186-0.017,7.78-0.015c1.362,0.001,1.761,0.401,1.761,1.768
			c0.001,23.045,0.006,46.09-0.021,69.135c-0.001,0.839,0.234,1.004,1.013,0.982c2.03-0.056,4.063-0.035,6.095-0.007
			c0.499,0.007,0.59-0.15,0.636-0.627c0.088-0.897-0.158-1.498-0.99-1.935c-0.776-0.408-1.484-0.949-2.207-1.455
			c-0.697-0.488-0.865-1.175-0.476-1.8c0.402-0.648,1.142-0.78,1.892-0.328c0.274,0.165,0.536,0.351,0.804,0.527
			C80.117,81.786,80.383,81.959,80.804,82.234z M29.471,56.335c0,10.025,0.004,20.051-0.011,30.076
			c-0.001,0.576,0.072,0.829,0.758,0.824c4.652-0.034,9.303-0.028,13.955-0.005c0.56,0.003,0.716-0.143,0.711-0.708
			c-0.026-3.475-0.015-6.951-0.012-10.426c0.001-1.304,0.415-1.71,1.735-1.711c2.272-0.003,4.545-0.003,6.817,0
			c1.302,0.002,1.711,0.416,1.712,1.736c0.002,3.422,0.018,6.844-0.015,10.266c-0.006,0.647,0.129,0.853,0.818,0.848
			c4.598-0.034,9.197-0.034,13.795,0c0.69,0.005,0.817-0.203,0.817-0.848c-0.018-19.971-0.019-39.941,0.002-59.912
			c0.001-0.704-0.165-0.876-0.873-0.875c-13.1,0.024-26.2,0.023-39.299,0.003c-0.701-0.001-0.933,0.136-0.931,0.897
			C29.481,36.445,29.471,46.39,29.471,56.335z M50.006,23.05c6.574,0,13.149-0.011,19.723,0.017
			c0.679,0.003,0.857-0.182,0.824-0.842c-0.056-1.12-0.069-2.248,0.003-3.365c0.049-0.77-0.167-0.964-0.95-0.963
			c-13.069,0.028-26.137,0.02-39.206,0.02c-0.134,0-0.269,0.016-0.4-0.002c-0.432-0.06-0.543,0.137-0.536,0.546
			c0.022,1.256,0.047,2.514-0.008,3.767c-0.029,0.663,0.152,0.841,0.828,0.839C36.857,23.04,43.432,23.05,50.006,23.05z
			 M16.638,72.163c0-0.882-0.006-1.763,0.002-2.645c0.009-0.954,0.479-1.527,1.252-1.545c0.801-0.019,1.306,0.575,1.31,1.569
			c0.007,1.55-0.008,3.099,0.009,4.649c0.004,0.385-0.205,0.97,0.111,1.113c0.401,0.181,0.823-0.263,1.182-0.525
			c2.996-2.181,3.425-7.34,0.863-10.269c-1.972-2.255-5.058-2.241-6.957,0.087c-1.62,1.986-1.972,4.271-1.334,6.719
			c0.428,1.641,1.318,2.962,2.815,3.829c0.494,0.286,0.811,0.375,0.758-0.416C16.594,73.876,16.638,73.018,16.638,72.163z
			 M80.805,75.39c0-2.026-0.009-4,0.004-5.974c0.006-0.882,0.518-1.438,1.272-1.443c0.755-0.004,1.276,0.552,1.286,1.43
			c0.016,1.496,0.005,2.992,0.005,4.488c0,0.49,0,0.98,0,1.513c0.744-0.17,1.234-0.535,1.693-0.941
			c2.86-2.526,2.86-7.891,0.007-10.428c-1.903-1.692-4.456-1.582-6.249,0.27c-2.503,2.586-2.485,7.379,0.05,9.929
			C79.396,74.763,79.974,75.228,80.805,75.39z M50.007,15.35c2.832,0,5.664,0,8.495,0c1.778,0,1.751-0.001,1.784-1.786
			c0.012-0.622-0.149-0.798-0.787-0.796c-5.984,0.026-11.968,0.015-17.952,0.015c-1.824,0-1.798,0-1.824,1.826
			c-0.009,0.594,0.139,0.762,0.747,0.756C43.649,15.333,46.828,15.35,50.007,15.35z M47.438,82.034c0,1.549,0.02,3.098-0.011,4.646
			c-0.01,0.507,0.216,0.555,0.623,0.547c0.405-0.008,0.692,0.017,0.686-0.566c-0.03-3.044-0.029-6.088-0.001-9.132
			c0.005-0.55-0.23-0.582-0.664-0.591c-0.467-0.01-0.657,0.089-0.645,0.611C47.461,79.042,47.438,80.538,47.438,82.034z
			 M52.571,82.166c0-1.549-0.026-3.098,0.014-4.646c0.015-0.564-0.25-0.584-0.674-0.578c-0.387,0.006-0.639,0.01-0.635,0.535
			c0.024,3.071,0.024,6.142,0,9.212c-0.004,0.52,0.24,0.536,0.631,0.538c0.419,0.002,0.693-0.005,0.677-0.575
			C52.544,85.157,52.571,83.661,52.571,82.166z"/>
		<path class="st0" d="M50.053,71.817c-1.23,0-2.46,0.01-3.689-0.003c-1.003-0.011-1.483-0.479-1.488-1.473
			c-0.012-2.433-0.011-4.865,0-7.298c0.004-1.004,0.476-1.483,1.471-1.488c2.433-0.012,4.865-0.011,7.298,0
			c1.003,0.004,1.484,0.477,1.489,1.471c0.012,2.433,0.012,4.865,0,7.298c-0.005,1.002-0.48,1.478-1.472,1.49
			C52.459,71.828,51.256,71.817,50.053,71.817z M50.127,64.118c-0.815,0-1.483,0.021-2.149-0.008
			c-0.415-0.018-0.556,0.111-0.549,0.538c0.024,1.361,0.017,2.722,0.003,4.083c-0.004,0.352,0.062,0.534,0.476,0.527
			c1.387-0.021,2.775-0.018,4.163-0.001c0.377,0.005,0.52-0.109,0.506-0.497c-0.025-0.693,0.001-1.388-0.009-2.081
			c-0.012-0.822,0.276-1.925-0.141-2.392C51.947,63.749,50.821,64.192,50.127,64.118z"/>
		<path class="st0" d="M32.038,31.957c0-1.176-0.008-2.353,0.002-3.529c0.01-1.052,0.469-1.521,1.516-1.525
			c2.406-0.01,4.812-0.009,7.218,0c1.051,0.004,1.522,0.47,1.526,1.516c0.01,2.406,0.01,4.812,0,7.218
			c-0.004,1.05-0.473,1.522-1.517,1.526c-2.406,0.01-4.812,0.01-7.218,0c-1.05-0.004-1.516-0.472-1.525-1.517
			C32.029,34.417,32.038,33.187,32.038,31.957z M37.164,34.6c0.694,0,1.388-0.018,2.081,0.007c0.387,0.014,0.504-0.126,0.499-0.505
			c-0.018-1.387-0.014-2.775-0.002-4.163c0.003-0.326-0.076-0.482-0.442-0.478c-1.414,0.016-2.829,0.015-4.243,0
			c-0.351-0.004-0.461,0.121-0.457,0.464c0.014,1.388,0.022,2.776-0.004,4.163c-0.009,0.451,0.179,0.532,0.568,0.519
			C35.829,34.583,36.497,34.6,37.164,34.6z"/>
		<path class="st0" d="M55.138,32.034c0,1.203,0.009,2.406-0.003,3.609c-0.01,1.047-0.476,1.517-1.523,1.521
			c-2.406,0.01-4.812,0.01-7.218,0c-1.047-0.004-1.516-0.474-1.52-1.523c-0.009-2.406-0.009-4.812,0-7.218
			c0.004-1.049,0.471-1.516,1.521-1.52c2.406-0.009,4.812-0.009,7.218,0c1.048,0.004,1.512,0.473,1.522,1.521
			C55.146,29.628,55.138,30.831,55.138,32.034z M47.438,31.954c0,0.694,0.028,1.389-0.01,2.081
			c-0.025,0.471,0.154,0.582,0.595,0.574c1.334-0.025,2.669-0.022,4.003-0.001c0.406,0.006,0.562-0.099,0.554-0.533
			c-0.025-1.361-0.025-2.722,0-4.083c0.008-0.435-0.149-0.539-0.554-0.533c-1.334,0.021-2.669,0.024-4.003-0.001
			c-0.441-0.008-0.622,0.104-0.594,0.575C47.466,30.671,47.438,31.314,47.438,31.954z"/>
		<path class="st0" d="M67.971,32.097c0,1.176,0.008,2.353-0.002,3.529c-0.009,1.057-0.468,1.533-1.506,1.538
			c-2.406,0.011-4.812,0.009-7.218,0.001c-1.058-0.004-1.532-0.466-1.537-1.506c-0.01-2.406-0.009-4.812-0.001-7.218
			c0.004-1.059,0.464-1.532,1.504-1.537c2.406-0.01,4.812-0.009,7.218-0.001c1.083,0.004,1.533,0.473,1.54,1.584
			C67.977,29.691,67.971,30.894,67.971,32.097z M63.041,29.468c-0.857,0-1.578,0.011-2.298-0.005
			c-0.327-0.007-0.482,0.077-0.478,0.443c0.016,1.414,0.015,2.829,0,4.243c-0.004,0.352,0.121,0.46,0.464,0.457
			c1.388-0.014,2.776-0.022,4.163,0.004c0.451,0.009,0.531-0.18,0.518-0.568c-0.023-0.693,0-1.388-0.008-2.081
			c-0.01-0.796,0.271-1.857-0.13-2.32C64.809,29.107,63.719,29.545,63.041,29.468z"/>
		<path class="st0" d="M57.705,66.684c0-1.203-0.008-2.406,0.003-3.609c0.01-1.05,0.471-1.517,1.52-1.521
			c2.406-0.009,4.812-0.009,7.218,0c1.049,0.004,1.518,0.472,1.523,1.52c0.01,2.406,0.01,4.812,0,7.218
			c-0.004,1.048-0.475,1.519-1.521,1.523c-2.406,0.01-4.812,0.01-7.218,0c-1.048-0.004-1.512-0.473-1.522-1.521
			C57.696,69.09,57.705,67.887,57.705,66.684z M65.404,66.652c0-0.667-0.023-1.335,0.008-2.001c0.02-0.424-0.127-0.549-0.545-0.542
			c-1.361,0.023-2.722,0.025-4.083-0.001c-0.449-0.009-0.526,0.176-0.52,0.566c0.018,1.334,0.025,2.669-0.003,4.003
			c-0.009,0.457,0.134,0.593,0.587,0.583c1.28-0.027,2.563-0.049,3.842,0.007c0.641,0.028,0.767-0.209,0.725-0.774
			C65.37,67.883,65.405,67.266,65.404,66.652z"/>
		<path class="st0" d="M42.304,79.597c0,1.176,0.009,2.353-0.003,3.529c-0.01,1.047-0.476,1.517-1.523,1.521
			c-2.406,0.01-4.812,0.01-7.218,0c-1.047-0.004-1.516-0.474-1.52-1.523c-0.009-2.406-0.009-4.812,0-7.218
			c0.004-1.049,0.471-1.516,1.521-1.52c2.406-0.009,4.812-0.009,7.218,0c1.048,0.004,1.512,0.473,1.522,1.521
			C42.313,77.138,42.304,78.368,42.304,79.597z M39.682,79.596c0.019,0,0.037,0,0.056,0c0-0.694-0.028-1.389,0.01-2.081
			c0.025-0.472-0.156-0.581-0.596-0.573c-1.334,0.025-2.669,0.022-4.003,0.001c-0.407-0.006-0.561,0.101-0.553,0.534
			c0.025,1.361,0.025,2.722,0,4.083c-0.008,0.436,0.151,0.547,0.556,0.531c0.693-0.027,1.388,0.014,2.081-0.013
			c0.816-0.031,1.91,0.358,2.368-0.166C39.994,81.461,39.682,80.392,39.682,79.596z"/>
		<path class="st0" d="M62.838,74.384c1.203,0,2.406-0.008,3.609,0.003c1.048,0.01,1.517,0.473,1.521,1.522
			c0.01,2.406,0.01,4.812,0,7.218c-0.004,1.047-0.476,1.517-1.523,1.521c-2.406,0.01-4.812,0.01-7.218,0
			c-1.047-0.004-1.515-0.474-1.52-1.523c-0.009-2.406-0.009-4.812,0-7.218c0.004-1.049,0.471-1.51,1.521-1.52
			C60.432,74.376,61.635,74.384,62.838,74.384z M65.404,79.653c0-0.841-0.011-1.535,0.005-2.229
			c0.007-0.325-0.074-0.483-0.441-0.479c-1.414,0.016-2.829,0.015-4.243,0c-0.35-0.004-0.462,0.118-0.459,0.462
			c0.014,1.388,0.022,2.776-0.004,4.163c-0.009,0.449,0.176,0.534,0.566,0.52c0.666-0.024,1.334,0,2.001-0.008
			c0.823-0.01,1.92,0.283,2.398-0.132C65.777,81.473,65.325,80.346,65.404,79.653z"/>
		<path class="st0" d="M37.143,48.717c-1.203,0-2.406,0.01-3.609-0.003c-1.005-0.011-1.487-0.477-1.492-1.469
			c-0.012-2.433-0.011-4.865-0.001-7.298c0.004-1.006,0.475-1.487,1.467-1.492c2.433-0.012,4.865-0.011,7.298-0.001
			c1.004,0.004,1.488,0.476,1.493,1.467c0.013,2.433,0.012,4.865,0.001,7.298c-0.005,1.032-0.487,1.487-1.548,1.496
			C39.549,48.724,38.346,48.717,37.143,48.717z M34.659,43.507c-0.018,0-0.036,0-0.055,0c0,0.694,0.028,1.389-0.01,2.081
			c-0.026,0.475,0.161,0.579,0.598,0.571c1.334-0.024,2.669-0.022,4.003-0.001c0.41,0.007,0.559-0.106,0.551-0.536
			c-0.025-1.361-0.025-2.722,0-4.083c0.008-0.438-0.156-0.544-0.558-0.529c-0.693,0.026-1.388-0.014-2.081,0.013
			c-0.816,0.032-1.91-0.358-2.367,0.167C34.347,41.643,34.659,42.711,34.659,43.507z"/>
		<path class="st0" d="M44.872,43.574c0-1.203-0.009-2.406,0.003-3.609c0.01-1.045,0.475-1.507,1.53-1.511
			c2.406-0.009,4.812-0.01,7.218,0c1.043,0.004,1.509,0.476,1.513,1.529c0.009,2.406,0.01,4.812,0,7.218
			c-0.005,1.042-0.479,1.509-1.531,1.513c-2.406,0.009-4.812,0.01-7.218,0c-1.043-0.004-1.503-0.477-1.512-1.531
			C44.864,45.98,44.872,44.777,44.872,43.574z M50.196,41.018c-0.834,0-1.529,0.022-2.221-0.008
			c-0.419-0.018-0.553,0.119-0.545,0.542c0.024,1.361,0.018,2.722,0.003,4.083c-0.004,0.356,0.07,0.53,0.479,0.524
			c1.387-0.021,2.775-0.019,4.163-0.001c0.38,0.005,0.516-0.116,0.503-0.5c-0.024-0.72,0.008-1.441-0.011-2.161
			c-0.021-0.795,0.337-1.843-0.128-2.317C51.932,40.66,50.872,41.094,50.196,41.018z"/>
		<path class="st0" d="M57.705,43.582c0-1.203-0.008-2.406,0.003-3.609c0.01-1.049,0.472-1.516,1.521-1.52
			c2.406-0.009,4.812-0.009,7.218,0c1.048,0.004,1.517,0.473,1.521,1.521c0.01,2.406,0.01,4.812,0,7.218
			c-0.004,1.047-0.475,1.517-1.522,1.521c-2.406,0.01-4.812,0.01-7.218,0c-1.047-0.004-1.511-0.474-1.52-1.522
			C57.696,45.989,57.705,44.785,57.705,43.582z M65.404,43.611c0-0.694-0.015-1.388,0.006-2.081c0.011-0.362-0.08-0.526-0.484-0.52
			c-1.387,0.02-2.775,0.019-4.163,0.001c-0.386-0.005-0.504,0.126-0.499,0.505c0.018,1.388,0.014,2.775,0.002,4.163
			c-0.003,0.326,0.076,0.482,0.442,0.478c1.414-0.016,2.829-0.015,4.243,0c0.351,0.004,0.467-0.12,0.457-0.464
			C65.391,44.999,65.404,44.305,65.404,43.611z"/>
		<path class="st0" d="M37.243,60.267c-1.23,0-2.46,0.009-3.689-0.003c-1.044-0.01-1.509-0.477-1.513-1.529
			c-0.009-2.406-0.01-4.812,0-7.218c0.004-1.046,0.474-1.509,1.528-1.513c2.406-0.009,4.812-0.01,7.218,0
			c1.044,0.004,1.511,0.475,1.515,1.528c0.009,2.406,0.01,4.812,0,7.218c-0.004,1.043-0.478,1.506-1.529,1.515
			C39.596,60.275,38.42,60.267,37.243,60.267z M37.368,52.568c-0.833,0-1.528,0.02-2.221-0.008c-0.41-0.017-0.56,0.104-0.552,0.535
			c0.025,1.361,0.025,2.722,0,4.083c-0.008,0.438,0.155,0.536,0.557,0.53c1.361-0.02,2.722-0.018,4.083-0.001
			c0.373,0.005,0.523-0.102,0.509-0.494c-0.025-0.72,0.001-1.441-0.009-2.161c-0.011-0.796,0.267-1.858-0.136-2.316
			C39.132,52.204,38.044,52.647,37.368,52.568z"/>
		<path class="st0" d="M50.005,60.267c-1.203,0-2.406,0.009-3.609-0.003c-1.048-0.01-1.517-0.474-1.521-1.522
			c-0.009-2.406-0.009-4.812,0-7.218c0.004-1.05,0.47-1.517,1.52-1.521c2.406-0.009,4.812-0.009,7.218,0
			c1.049,0.004,1.518,0.472,1.523,1.52c0.01,2.406,0.01,4.812,0,7.218c-0.004,1.048-0.475,1.513-1.521,1.523
			C52.411,60.276,51.208,60.267,50.005,60.267z M50.001,57.7c0.694,0,1.388-0.008,2.082,0.004c0.308,0.005,0.498-0.042,0.494-0.425
			c-0.016-1.441-0.014-2.882-0.002-4.323c0.003-0.337-0.163-0.392-0.445-0.391c-1.414,0.007-2.829,0.012-4.243-0.003
			c-0.356-0.004-0.456,0.13-0.453,0.468c0.013,1.388,0.022,2.776-0.004,4.163c-0.009,0.455,0.188,0.527,0.571,0.514
			C48.667,57.684,49.334,57.7,50.001,57.7z"/>
		<path class="st0" d="M67.971,55.163c0,1.203,0.01,2.406-0.003,3.609c-0.011,1.003-0.48,1.486-1.471,1.491
			c-2.433,0.012-4.865,0.012-7.298,0c-1.004-0.005-1.484-0.478-1.489-1.471c-0.012-2.433-0.011-4.865-0.001-7.298
			c0.004-1.005,0.475-1.484,1.47-1.489c2.433-0.012,4.865-0.011,7.298-0.001c1.003,0.004,1.479,0.477,1.491,1.47
			C67.982,52.704,67.971,53.933,67.971,55.163z M65.404,55.257c0-0.815-0.021-1.483,0.008-2.149
			c0.018-0.415-0.111-0.556-0.538-0.549c-1.361,0.024-2.722,0.017-4.083,0.003c-0.352-0.004-0.534,0.062-0.527,0.476
			c0.021,1.387,0.018,2.775,0.001,4.163c-0.005,0.377,0.109,0.52,0.497,0.506c0.693-0.025,1.388,0.001,2.081-0.009
			c0.822-0.012,1.925,0.276,2.392-0.141C65.773,57.076,65.33,55.951,65.404,55.257z"/>
		<path class="st0" d="M32.038,66.612c0-1.203-0.012-2.406,0.004-3.609c0.012-0.954,0.485-1.442,1.43-1.447
			c2.459-0.014,4.919-0.013,7.378-0.001c0.952,0.005,1.443,0.487,1.449,1.429c0.015,2.459,0.014,4.919,0.001,7.378
			c-0.005,0.951-0.489,1.443-1.431,1.449c-2.459,0.015-4.919,0.014-7.378,0c-0.978-0.005-1.44-0.5-1.45-1.511
			C32.03,69.072,32.038,67.842,32.038,66.612z M39.737,66.694c0-0.694-0.017-1.388,0.007-2.081c0.013-0.383-0.119-0.507-0.501-0.502
			c-1.387,0.018-2.775,0.013-4.163,0.003c-0.322-0.003-0.485,0.07-0.481,0.439c0.016,1.414,0.015,2.829,0,4.243
			c-0.004,0.347,0.113,0.464,0.46,0.461c1.388-0.015,2.776-0.022,4.163,0.004c0.447,0.008,0.536-0.172,0.522-0.564
			C39.72,68.029,39.738,67.361,39.737,66.694z"/>
	</g>
</g>
<g id="Layer_5">
</g>
</svg>
