<?xml version="1.0" encoding="utf-8"?>
<!-- Generator: Adobe Illustrator 23.1.0, SVG Export Plug-In . SVG Version: 6.00 Build 0)  -->
<svg version="1.1" xmlns="http://www.w3.org/2000/svg" xmlns:xlink="http://www.w3.org/1999/xlink" x="0px" y="0px" width="100px"
	 height="100px" viewBox="0 0 100 100" style="enable-background:new 0 0 100 100;" xml:space="preserve">
<style type="text/css">
	.st0{fill:#00AEEF;}
</style>
<g id="Layer_8">
</g>
<g id="Layer_6">
	<g>
		<path class="st0" d="M23.623,39.587c0,5.304,0,10.608,0,15.912c0,1.085,0.058,1.165,1.085,1.562
			c2.526,0.976,4.104,3.203,4.169,5.904c0.015,0.635,0.027,1.273-0.018,1.906c-0.093,1.29-1.11,2.22-2.404,2.27
			c-4.011,0.157-8.023,0.038-12.035,0.069c-0.575,0.004-1.15-0.041-1.724-0.079c-1.192-0.079-2.163-1.067-2.204-2.261
			c-0.031-0.912-0.062-1.825,0.083-2.735c0.416-2.602,1.889-4.328,4.36-5.172c0.628-0.215,0.795-0.524,0.794-1.153
			c-0.018-10.728-0.016-21.455-0.006-32.183c0.001-0.778-0.217-1.387-0.786-1.962c-3.363-3.398-2.032-9.148,2.494-10.784
			c2.537-0.917,4.85-0.348,6.795,1.429c1.876,1.713,2.368,3.925,1.823,6.379c-0.082,0.368-0.221,0.722-0.305,1.09
			c-0.074,0.322-0.38,0.653,0.006,0.98c0.468,0.397,0.899,0.883,1.618,0.639c0.132-0.045,0.26-0.098,0.39-0.147
			c1.126-0.423,2.25-0.342,3.175,0.386c2.65,2.088,5.775,2.936,8.978,3.618c3.49,0.744,7.023,1.109,10.587,1.05
			c4.446-0.074,8.824-0.692,13.103-1.926c1.769-0.51,3.418-1.272,4.881-2.42c1.201-0.942,2.545-1.14,3.99-0.628
			c0.606,0.215,1.672-0.231,1.921-0.803c0.121-0.279-0.098-0.491-0.189-0.719c-0.986-2.473-0.772-4.819,0.909-6.9
			c1.292-1.599,2.984-2.386,5.126-2.436c3.286-0.078,5.992,2.549,6.487,5.253c0.424,2.317-0.139,4.34-1.813,6.004
			c-0.509,0.507-0.721,1.054-0.721,1.747c0.005,10.827,0.008,21.654-0.008,32.481c-0.001,0.559,0.186,0.792,0.714,0.956
			c2.971,0.924,4.73,3.887,4.618,6.473c-0.014,0.317-0.033,0.639,0.003,0.953c0.171,1.469-1.23,2.633-2.348,2.78
			c-1.426,0.188-2.855,0.099-4.282,0.056c-1.43-0.043-2.857-0.041-4.287,0.001c-1.746,0.052-3.496,0.138-5.237-0.055
			c-1.478-0.163-2.282-1.057-2.331-2.533c-0.051-1.538,0.013-3.063,0.718-4.482c0.766-1.54,1.997-2.54,3.602-3.11
			c0.847-0.301,0.931-0.427,0.931-1.286c-0.005-10.747-0.01-21.495-0.02-32.242c0-0.229,0.121-0.562-0.097-0.664
			c-0.248-0.117-0.427,0.211-0.635,0.343c-0.516,0.33-0.688,0.748-0.594,1.406c0.221,1.548-0.421,2.781-1.632,3.742
			c-1.777,1.41-3.757,2.45-5.888,3.202c-3.462,1.223-7.047,1.903-10.68,2.365c-3.063,0.39-6.142,0.49-9.217,0.331
			c-5.212-0.271-10.36-0.956-15.285-2.815c-2.078-0.784-3.988-1.878-5.762-3.204c-1.221-0.912-1.688-2.166-1.531-3.665
			c0.076-0.728-0.341-1.433-1-1.702c-0.182-0.074-0.272-0.028-0.289,0.15c-0.02,0.197-0.017,0.397-0.017,0.595
			c-0.001,5.344-0.001,10.688-0.001,16.032C23.634,39.587,23.628,39.587,23.623,39.587z M49.904,31.562
			c0.417,0,0.834,0.011,1.251-0.003c0.416-0.014,0.831-0.063,1.248-0.08c4.464-0.18,8.854-0.816,13.121-2.178
			c2.152-0.687,4.179-1.633,5.975-3.027c0.316-0.245,0.629-0.503,0.723-0.916c0.134-0.583-0.046-1.064-0.546-1.4
			c-0.521-0.35-1.031-0.235-1.49,0.122c-1.41,1.096-2.961,1.935-4.648,2.502c-4.535,1.522-9.219,2.206-13.983,2.38
			c-2.184,0.08-4.367-0.001-6.544-0.219c-3.486-0.348-6.927-0.925-10.264-2.02c-1.768-0.58-3.402-1.427-4.894-2.547
			c-0.68-0.511-1.2-0.546-1.689-0.171c-0.8,0.612-0.744,1.567,0.167,2.177c2.037,1.365,4.178,2.513,6.533,3.261
			C39.761,30.998,44.807,31.453,49.904,31.562z M20.886,40.177c0-4.963,0-9.926,0-14.889c0-1.554,0-1.554-1.581-1.553
			c-0.91,0.001-0.911,0.001-0.911,0.905c0,10.085,0,20.17,0,30.255c0,1.633,0,1.633,1.633,1.626c0.856-0.003,0.859-0.003,0.859-0.86
			C20.887,50.5,20.886,45.338,20.886,40.177z M79.024,40.114c0,5.004-0.005,10.007,0.003,15.011
			c0.002,1.587-0.196,1.382,1.393,1.394c1.022,0.008,1.022,0.001,1.022-1.053c0-10.047,0-20.094,0-30.141
			c0-1.596,0-1.596-1.604-1.59c-0.81,0.003-0.813,0.003-0.813,0.832C79.024,29.749,79.024,34.931,79.024,40.114z M19.617,64.462
			c1.966,0,3.932-0.01,5.898,0.007c0.444,0.004,0.644-0.148,0.698-0.595c0.278-2.3-1.215-4.252-3.502-4.507
			c-1.84-0.205-3.689-0.078-5.534-0.07c-0.393,0.002-0.796,0.063-1.175,0.165c-1.917,0.519-2.93,2.081-2.877,4.328
			c0.012,0.521,0.206,0.685,0.713,0.68C15.764,64.45,17.69,64.462,19.617,64.462z M80.255,64.463c1.825,0,3.649,0,5.474,0
			c1.068,0,1.068,0,1.048-1.063c-0.038-2.112-1.154-3.566-3.079-3.965c-0.719-0.149-1.454-0.21-2.189-0.147
			c-1.05,0.089-2.097,0.089-3.147-0.003c-2.831-0.249-4.781,1.622-4.678,4.459c0.019,0.516,0.183,0.738,0.739,0.73
			C76.367,64.446,78.311,64.462,80.255,64.463z M80.236,20.997c2.167-0.001,3.927-1.739,3.919-3.871
			c-0.008-2.136-1.777-3.892-3.921-3.893c-2.163-0.001-3.887,1.721-3.904,3.898C76.312,19.288,78.04,20.998,80.236,20.997z
			 M19.666,20.997c2.184,0.004,3.9-1.691,3.914-3.867c0.014-2.139-1.75-3.899-3.906-3.897c-2.149,0.002-3.908,1.749-3.918,3.892
			C15.746,19.275,17.482,20.994,19.666,20.997z"/>
		<path class="st0" d="M40.018,89.535c-6.297,0-12.595,0.006-18.892-0.004c-2.056-0.003-3.166-1.541-2.562-3.5
			c0.118-0.384,0.307-0.731,0.515-1.07c2.658-4.335,5.313-8.671,7.974-13.004c3.586-5.839,7.193-11.666,10.753-17.521
			c0.806-1.325,1.932-1.887,3.416-1.845c5.143,0.146,10.288,0.039,15.431,0.067c0.734,0.004,1.467-0.06,2.201-0.066
			c1.429-0.013,2.483,0.582,3.238,1.837c2.13,3.54,4.308,7.051,6.474,10.569c4.061,6.596,8.128,13.189,12.189,19.786
			c0.218,0.354,0.436,0.716,0.585,1.102c0.699,1.806-0.413,3.55-2.348,3.641c-1.169,0.055-2.343,0.009-3.515,0.011
			c-2.98,0.005-5.959,0.012-8.939,0.014c-0.337,0-0.68,0.004-1.01-0.051c-0.687-0.116-1.109-0.618-1.117-1.274
			c-0.008-0.678,0.434-1.201,1.142-1.31c0.292-0.045,0.594-0.039,0.892-0.039c3.834-0.002,7.668,0,11.502-0.005
			c0.231,0,0.548,0.117,0.674-0.087c0.151-0.242-0.118-0.472-0.247-0.681c-4.661-7.58-9.327-15.157-13.993-22.734
			c-1.469-2.385-2.944-4.765-4.41-7.151c-0.224-0.364-0.479-0.683-0.876-0.863c-0.248-0.112-0.357-0.009-0.281,0.236
			c0.082,0.264,0.204,0.517,0.321,0.769c3.684,7.902,7.369,15.803,11.053,23.705c0.159,0.342,0.332,0.682,0.448,1.039
			c0.325,0.999-0.181,1.756-1.222,1.855c-0.197,0.019-0.397,0.011-0.596,0.011c-7.668,0-15.336,0-23.004,0.002
			c-0.398,0-0.794-0.008-1.182-0.112c-0.679-0.181-0.998-0.565-1.005-1.218c-0.007-0.643,0.309-1.058,0.978-1.243
			c0.481-0.133,0.977-0.156,1.476-0.155c6.794,0.003,13.588,0.003,20.382,0.002c0.783,0,0.8-0.029,0.461-0.756
			c-3.59-7.705-7.189-15.405-10.757-23.12c-0.359-0.775-0.803-1.08-1.678-1.064c-3.078,0.055-6.158,0.04-9.237,0.008
			c-0.737-0.008-1.142,0.235-1.459,0.92c-3.557,7.698-7.146,15.381-10.726,23.069c-0.059,0.126-0.111,0.256-0.178,0.377
			c-0.231,0.414-0.091,0.567,0.359,0.565c1.47-0.007,2.94-0.005,4.41,0.005c0.316,0.002,0.637,0.022,0.946,0.085
			c0.73,0.149,1.119,0.638,1.105,1.337c-0.014,0.661-0.41,1.106-1.133,1.251c-0.193,0.038-0.394,0.046-0.592,0.046
			c-2.344,0.003-4.688,0.009-7.032-0.001c-1.624-0.007-2.172-0.832-1.495-2.324c1.174-2.586,2.389-5.153,3.59-7.726
			c2.57-5.507,5.142-11.013,7.713-16.519c0.067-0.144,0.138-0.288,0.188-0.438c0.059-0.179,0.269-0.395,0.088-0.542
			c-0.225-0.182-0.46,0.038-0.624,0.184c-0.188,0.168-0.329,0.395-0.464,0.613c-5.547,8.994-11.091,17.989-16.635,26.985
			c-0.584,0.947-1.171,1.891-1.744,2.845c-0.137,0.228-0.441,0.466-0.293,0.728c0.13,0.231,0.477,0.098,0.725,0.098
			c6.575,0.006,13.151,0.005,19.726,0.005c5.542,0,11.085,0,16.627,0.001c0.298,0,0.598-0.005,0.893,0.026
			c0.814,0.086,1.231,0.55,1.222,1.331c-0.009,0.773-0.452,1.231-1.263,1.295c-0.217,0.017-0.437,0.009-0.655,0.009
			C52.374,89.535,46.196,89.535,40.018,89.535z"/>
	</g>
</g>
<g id="Layer_7">
</g>
<g id="Layer_2">
</g>
<g id="Layer_3">
</g>
<g id="Layer_4">
</g>
<g id="Layer_5">
</g>
</svg>
