<?xml version="1.0" encoding="utf-8"?>
<!-- Generator: Adobe Illustrator 23.1.0, SVG Export Plug-In . SVG Version: 6.00 Build 0)  -->
<svg version="1.1" xmlns="http://www.w3.org/2000/svg" xmlns:xlink="http://www.w3.org/1999/xlink" x="0px" y="0px" width="100px"
	 height="100px" viewBox="0 0 100 100" style="enable-background:new 0 0 100 100;" xml:space="preserve">
<style type="text/css">
	.st0{fill:#00AEEF;}
</style>
<g id="Layer_8">
</g>
<g id="Layer_6">
</g>
<g id="Layer_7">
</g>
<g id="Layer_2">
</g>
<g id="Layer_3">
	<g>
		<path class="st0" d="M46.03,69.517c0,4.031-0.013,8.063,0.006,12.094c0.008,1.695,0.518,3.204,1.974,4.218
			c1.468,1.023,3.061,1.132,4.662,0.358c1.561-0.754,2.383-2.022,2.498-3.785c0.198-3.01,0.051-6.022,0.104-9.032
			c0.017-0.949,0.365-1.415,1.094-1.455c0.614-0.034,1.016,0.247,1.196,0.833c0.105,0.342,0.123,0.695,0.122,1.052
			c-0.006,2.878,0.01,5.756-0.106,8.634c-0.143,3.572-3.015,6.482-6.616,6.646c-3.556,0.161-6.784-2.441-7.199-5.927
			c-0.182-1.532-0.176-3.095-0.156-4.642c0.103-7.707,0.084-15.413,0.076-23.12c-0.001-0.753,0.19-1.309,0.986-1.5
			c0.378-0.091,0.377-0.379,0.377-0.676c-0.001-1.063-0.007-2.127,0.003-3.19c0.011-1.197,0.411-1.601,1.596-1.617
			c0.709-0.01,1.418-0.021,2.126,0.003c0.482,0.017,0.678-0.16,0.667-0.654c-0.023-1.018-0.019-2.038-0.001-3.057
			c0.044-2.455,1.41-3.999,3.838-4.419c8.965-1.552,17.929-3.113,26.891-4.679c1.723-0.301,2.104-0.782,2.106-2.548
			c0.002-2.525,0.005-5.05-0.001-7.576c-0.005-1.763-0.554-2.316-2.303-2.312c-1.331,0.003-1.264-0.172-1.291,1.3
			c-0.031,1.659,0.139,3.325-0.101,4.976c-0.296,2.04-1.872,3.369-3.921,3.469c-3.409,0.167-6.819,0.046-10.229,0.08
			c-0.507,0.005-1.017-0.05-1.521-0.117c-0.573-0.077-0.919-0.423-0.975-1.008c-0.056-0.584,0.216-0.971,0.762-1.179
			c0.3-0.114,0.609-0.1,0.919-0.1c3.323-0.001,6.645,0,9.968-0.002c0.287,0,0.578,0.001,0.862-0.038
			c1.265-0.174,1.815-0.747,1.82-2.023c0.018-4.408,0.017-8.816,0.001-13.224c-0.005-1.256-0.537-1.82-1.764-1.985
			c-0.35-0.047-0.705-0.077-1.058-0.077c-5.981-0.005-11.961-0.004-17.942-0.003c-1.136,0-1.137,0.003-1.138,1.154
			c-0.001,2.857,0.007,5.715-0.003,8.572c-0.006,1.575-0.329,3.039-1.578,4.147c-1.421,1.26-3.048,1.487-4.768,0.821
			c-1.722-0.666-2.684-1.985-2.829-3.838c-0.062-0.793-0.026-1.594-0.026-2.391c0-0.47-0.067-0.928-0.228-1.369
			c-0.322-0.878-1.316-1.495-2.203-1.375c-1.037,0.139-1.837,0.92-1.905,1.916c-0.21,3.052-0.069,6.11-0.111,9.164
			c-0.007,0.519,0.295,0.554,0.69,0.553c1.927-0.007,3.854-0.003,5.781-0.003c3.588,0,7.177,0,10.765,0.001
			c0.243,0,0.49-0.012,0.73,0.02c0.572,0.076,0.936,0.395,0.999,0.982c0.064,0.594-0.159,1.04-0.745,1.259
			c-0.403,0.151-0.823,0.151-1.246,0.151c-5.338-0.002-10.677-0.001-16.015-0.001c-0.954,0-0.956,0.002-0.957,0.954
			c-0.002,1.57,0.009,3.139-0.003,4.709c-0.02,2.572-1.946,4.474-4.519,4.476c-2.616,0.002-4.55-1.895-4.572-4.498
			c-0.014-1.595-0.01-3.19-0.019-4.784c-0.004-0.81-0.049-0.854-0.877-0.856c-1.816-0.004-3.633,0.011-5.449-0.008
			c-0.64-0.007-1.286-0.049-1.918-0.146c-1.92-0.295-3.195-1.691-3.398-3.789c-0.062-0.639-0.284-0.841-0.896-0.813
			c-0.818,0.037-1.639,0.023-2.458-0.006c-0.804-0.029-1.115-0.323-1.218-1.112c-0.055-0.416-0.089-0.837-0.09-1.256
			c-0.008-2.658-0.004-5.316-0.004-7.974c0-0.155-0.003-0.31,0.003-0.465c0.056-1.548,0.367-1.849,1.918-1.851
			c0.665-0.001,1.329-0.016,1.993,0.004c0.458,0.014,0.689-0.135,0.719-0.632c0.115-1.87,1.076-3.129,2.806-3.835
			c0.405-0.165,0.808-0.201,1.231-0.201c16.901,0.002,33.802,0.001,50.703,0.002c1.901,0,3.639,1.537,3.911,3.412
			c0.167,1.148,0.085,2.299,0.104,3.449c0.013,0.775,0.021,1.551-0.003,2.326c-0.015,0.493,0.186,0.663,0.668,0.655
			c0.64-0.011,1.282-0.053,1.921,0.077c2.036,0.414,3.364,1.868,3.399,3.93c0.052,3.056,0.053,6.114-0.002,9.17
			c-0.036,1.981-1.298,3.423-3.332,3.849c-1.992,0.417-4.007,0.73-6.012,1.083c-7.238,1.275-14.477,2.543-21.713,3.826
			c-1.324,0.235-1.736,0.755-1.745,2.074c-0.006,0.997,0.017,1.994-0.008,2.99c-0.013,0.496,0.182,0.668,0.664,0.653
			c0.752-0.024,1.506-0.021,2.259,0.001c1.025,0.029,1.445,0.459,1.456,1.482c0.012,1.085,0.015,2.171-0.001,3.256
			c-0.006,0.408,0.113,0.674,0.529,0.793c0.56,0.159,0.816,0.576,0.869,1.133c0.025,0.264,0.053,0.529,0.053,0.794
			c0.003,3.987,0.001,7.974,0.004,11.961c0,0.357-0.016,0.71-0.144,1.047c-0.204,0.532-0.583,0.844-1.167,0.795
			c-0.573-0.048-0.931-0.399-1.056-0.95c-0.058-0.255-0.044-0.528-0.044-0.793c-0.002-3.544-0.001-7.088-0.002-10.632
			c0-0.999-0.001-1-0.967-1c-2.414-0.001-4.829-0.001-7.243,0c-0.992,0-1.032,0.036-1.033,1.061
			C46.028,61.41,46.03,65.463,46.03,69.517z M38.379,29.654c0.005,0,0.011,0,0.016,0c0-2.923-0.049-5.847,0.014-8.768
			c0.059-2.727,2.611-4.736,5.292-4.268c2.172,0.379,3.722,2.189,3.788,4.409c0.03,1.016-0.085,2.037,0.108,3.048
			c0.139,0.727,0.526,1.255,1.194,1.574c1.553,0.74,3.124-0.326,3.147-2.205c0.038-3.144,0.006-6.288,0.017-9.433
			c0.002-0.469-0.149-0.678-0.651-0.677c-5.536,0.011-11.071,0.012-16.607-0.001c-0.54-0.001-0.681,0.226-0.675,0.719
			c0.018,1.55,0.014,3.1,0.001,4.65c-0.003,0.396-0.041,0.797-0.112,1.186c-0.111,0.612-0.512,0.905-1.13,0.899
			c-0.761-0.008-1.155-0.433-1.16-1.305c-0.012-1.771-0.03-3.543,0.01-5.314c0.014-0.619-0.182-0.912-0.798-0.914
			c-2.191-0.006-4.384-0.13-6.57,0.062c-1.449,0.127-1.922,0.693-1.925,2.161c-0.009,4.318-0.009,8.636-0.001,12.953
			c0.003,1.431,0.623,2.112,2.04,2.138c2.169,0.04,4.34,0.008,6.51,0.015c0.529,0.002,0.746-0.215,0.738-0.762
			c-0.023-1.683-0.009-3.366-0.007-5.048c0-0.221-0.009-0.445,0.02-0.663c0.083-0.632,0.491-1.03,1.078-1.075
			c0.582-0.045,1.024,0.296,1.197,0.925c0.107,0.389,0.117,0.786,0.117,1.186c-0.002,4.296-0.002,8.591,0,12.887
			c0,0.288-0.009,0.578,0.022,0.863c0.149,1.394,1.608,2.26,2.901,1.727c1.073-0.442,1.425-1.32,1.426-2.399
			C38.381,35.367,38.379,32.51,38.379,29.654z M50.578,53.826c0.863,0,1.727-0.011,2.589,0.005c0.452,0.008,0.645-0.176,0.632-0.63
			c-0.018-0.619-0.011-1.239-0.004-1.859c0.004-0.364-0.16-0.514-0.524-0.513c-1.748,0.007-3.497,0.008-5.245-0.001
			c-0.394-0.002-0.562,0.153-0.553,0.55c0.015,0.619,0.018,1.24-0.002,1.859c-0.014,0.425,0.154,0.602,0.582,0.594
			C48.896,53.815,49.737,53.826,50.578,53.826z M19.906,21.911c0-0.883,0.004-1.767-0.001-2.65c-0.007-1.407,0.133-1.224-1.299-1.27
			c-0.605-0.019-0.813,0.181-0.803,0.791c0.031,1.877,0.003,3.755,0.013,5.632c0.008,1.531-0.212,1.377,1.437,1.403
			c0.489,0.007,0.668-0.175,0.658-0.659C19.89,24.076,19.905,22.993,19.906,21.911z"/>
	</g>
</g>
<g id="Layer_4">
</g>
<g id="Layer_5">
</g>
</svg>
